<svg xmlns="http://www.w3.org/2000/svg" xmlns:xlink="http://www.w3.org/1999/xlink" width="69.276" height="69.196" viewBox="0 0 69.276 69.196"><defs><style>.a{opacity:0.1;}.b{fill:url(#a);}.c{fill:url(#b);}.d{fill:url(#c);}.e{fill:url(#d);}.f{fill:url(#e);}.g{fill:url(#f);}.h{fill:url(#g);}.i{fill:url(#h);}.j{fill:url(#i);}.k{fill:url(#j);}.l{fill:url(#k);}.m{fill:url(#l);}.n{fill:url(#m);}.o{fill:url(#n);}.p{fill:url(#o);}.q{fill:url(#p);}.r{fill:url(#q);}.s{fill:url(#r);}.t{fill:url(#s);}.u{fill:url(#t);}.v{fill:url(#u);}.w{fill:url(#v);}.x{fill:url(#w);}.y{fill:url(#x);}.z{fill:url(#y);}.aa{fill:url(#z);}.ab{fill:url(#aa);}.ac{fill:url(#ab);}.ad{fill:url(#ac);}.ae{fill:url(#ad);}.af{fill:url(#ae);}.ag{fill:url(#af);}.ah{fill:url(#ag);}.ai{fill:url(#ah);}.aj{fill:url(#ai);}.ak{fill:url(#aj);}</style><radialGradient id="a" cx="0.474" cy="0.501" r="0.473" gradientTransform="translate(-0.105) scale(1.21 1)" gradientUnits="objectBoundingBox"><stop offset="0" stop-color="#00dbff"/><stop offset="1" stop-color="#13a5f4"/></radialGradient><radialGradient id="b" cx="0.496" cy="0.526" r="0.738" gradientTransform="translate(0.205) scale(0.591 1)" xlink:href="#a"/><radialGradient id="c" cx="0.52" cy="0.505" r="0.51" gradientTransform="translate(-0.027) scale(1.054 1)" xlink:href="#a"/><radialGradient id="d" cx="0.506" cy="0.494" r="0.543" gradientTransform="translate(0.018) scale(0.964 1)" xlink:href="#a"/><radialGradient id="e" cx="0.5" cy="0.484" r="0.584" gradientTransform="translate(0.046) scale(0.907 1)" xlink:href="#a"/><radialGradient id="f" cx="0.499" cy="0.497" r="0.549" gradientTransform="translate(0.015) scale(0.969 1)" xlink:href="#a"/><radialGradient id="g" cx="0.475" cy="0.508" r="0.514" gradientTransform="translate(-0.021) scale(1.041 1)" xlink:href="#a"/><radialGradient id="h" cx="0.504" cy="0.527" r="0.738" gradientTransform="translate(0.205) scale(0.591 1)" xlink:href="#a"/><radialGradient id="i" cx="0.498" cy="0.517" r="0.404" gradientTransform="translate(-0.54) scale(2.079 1)" xlink:href="#a"/><radialGradient id="j" cx="0.53" cy="0.498" r="0.473" gradientTransform="translate(-0.105) scale(1.209 1)" xlink:href="#a"/><radialGradient id="k" cx="0.499" cy="0.499" r="0.499" gradientTransform="matrix(1, 0, 0, 1, 0, 0)" xlink:href="#a"/><radialGradient id="l" cx="0.507" cy="0.503" r="0.498" gradientTransform="matrix(0.951, -0.309, 0.309, 0.951, 10.016, 12.006)" xlink:href="#a"/><radialGradient id="m" cx="0.508" cy="0.508" r="0.498" gradientTransform="matrix(0.588, -0.809, 0.809, 0.588, 87.585, 98.548)" xlink:href="#a"/><radialGradient id="n" cx="0.503" cy="0.501" r="0.498" gradientTransform="translate(215.13 231.961) rotate(-90)" xlink:href="#a"/><radialGradient id="o" cx="0.489" cy="0.504" r="0.498" gradientTransform="matrix(-0.588, -0.809, 0.809, -0.588, 338.562, 357.383)" xlink:href="#a"/><radialGradient id="p" cx="0.479" cy="0.496" r="0.498" gradientTransform="matrix(-0.951, -0.309, 0.309, -0.951, 405.382, 430.807)" xlink:href="#a"/><radialGradient id="q" cx="0.494" cy="0.477" r="0.498" gradientTransform="matrix(-0.951, 0.309, -0.309, -0.951, 392.092, 430.483)" xlink:href="#a"/><radialGradient id="r" cx="0.5" cy="0.493" r="0.498" gradientTransform="matrix(-0.588, 0.809, -0.809, -0.588, 310.41, 356.552)" xlink:href="#a"/><radialGradient id="s" cx="0.498" cy="0.504" r="0.498" gradientTransform="translate(193.59 230.936) rotate(90)" xlink:href="#a"/><radialGradient id="t" cx="0.508" cy="0.506" r="0.498" gradientTransform="matrix(0.588, 0.809, -0.809, 0.588, 80.887, 97.722)" xlink:href="#a"/><radialGradient id="u" cx="0.508" cy="0.506" r="0.498" gradientTransform="matrix(0.951, 0.309, -0.309, 0.951, 9.986, 11.696)" xlink:href="#a"/><radialGradient id="v" cx="0.499" cy="0.498" r="0.497" gradientTransform="translate(27.844 32.269) rotate(-36.001)" xlink:href="#a"/><radialGradient id="w" cx="0.509" cy="0.493" r="0.497" gradientTransform="translate(194.354 213.567) rotate(-107.998)" xlink:href="#a"/><radialGradient id="x" cx="0.503" cy="0.501" r="0.497" gradientTransform="translate(289.82 319.827) rotate(180)" xlink:href="#a"/><radialGradient id="y" cx="0.489" cy="0.505" r="0.497" gradientTransform="translate(184.989 212.584) rotate(107.998)" xlink:href="#a"/><radialGradient id="z" cx="0.497" cy="0.497" r="0.497" gradientTransform="translate(27.5 31.679) rotate(36.001)" xlink:href="#a"/><radialGradient id="aa" cx="0.503" cy="0.485" r="0.499" gradientTransform="matrix(0.809, -0.588, 0.588, 0.809, 86.275, 99.262)" xlink:href="#a"/><radialGradient id="ab" cx="0.519" cy="0.466" r="0.499" gradientTransform="matrix(-0.309, -0.951, 0.951, -0.309, 608.627, 630.104)" xlink:href="#a"/><radialGradient id="ac" cx="0.509" cy="0.497" r="0.499" gradientTransform="translate(867.448 915.995) rotate(180)" xlink:href="#a"/><radialGradient id="ad" cx="0.475" cy="0.523" r="0.499" gradientTransform="matrix(-0.309, 0.951, -0.951, -0.309, 526.796, 629.088)" xlink:href="#a"/><radialGradient id="ae" cx="0.487" cy="0.505" r="0.499" gradientTransform="matrix(0.809, 0.588, -0.588, 0.809, 79.389, 98.671)" xlink:href="#a"/><radialGradient id="af" cx="0.495" cy="0.497" r="0.499" gradientTransform="matrix(0.809, -0.588, 0.588, 0.809, 82.537, 101.181)" xlink:href="#a"/><radialGradient id="ag" cx="0.523" cy="0.481" r="0.499" gradientTransform="matrix(-0.309, -0.951, 0.951, -0.309, 613.243, 658.504)" xlink:href="#a"/><radialGradient id="ah" cx="0.508" cy="0.495" r="0.499" gradientTransform="translate(910.865 922.666) rotate(180)" xlink:href="#a"/><radialGradient id="ai" cx="0.471" cy="0.519" r="0.499" gradientTransform="matrix(-0.309, 0.951, -0.951, -0.309, 539.722, 603.408)" xlink:href="#a"/><radialGradient id="aj" cx="0.496" cy="0.507" r="0.499" gradientTransform="matrix(0.809, 0.588, -0.588, 0.809, 76.411, 95.713)" xlink:href="#a"/></defs><g class="a" transform="translate(-1067 -618)"><g transform="translate(1101.423 656.429)"><g transform="translate(0 0)"><path class="b" d="M1163.812,715.976a20.749,20.749,0,0,1,9.1,9.737,24.138,24.138,0,0,1,1.875,6.624,25.373,25.373,0,0,1,.24,3.472c0,.6,0,1.157-.04,1.756-.04.279-.04.6-.08.878-.04.319-.08.559-.12.918l-.239,1.277-1.357-.12a10.409,10.409,0,0,1-1.237-.16,11.69,11.69,0,0,1-1.157-.2c-.758-.16-1.516-.319-2.275-.559a25.437,25.437,0,0,1-4.35-1.756,20.115,20.115,0,0,1-7.023-6.185,21.162,21.162,0,0,1-3.472-8.46,26.672,26.672,0,0,1-.08-8.9,32.624,32.624,0,0,0,1.277,8.62,22.48,22.48,0,0,0,1.636,3.911,18.758,18.758,0,0,0,2.434,3.392,22.637,22.637,0,0,0,6.624,4.828,26.37,26.37,0,0,0,3.831,1.516c.638.2,1.317.4,2,.559a8.822,8.822,0,0,0,1,.2,9.588,9.588,0,0,0,.958.16l-1.6,1.2q.06-.3.12-.718c.04-.24.08-.519.12-.758.04-.519.12-1.038.12-1.556a20.255,20.255,0,0,0,0-3.113,26.94,26.94,0,0,0-1.157-6.146,26.271,26.271,0,0,0-1.2-2.913,27.778,27.778,0,0,0-1.636-2.754A26.54,26.54,0,0,0,1163.812,715.976Z" transform="translate(-1153.262 -714.3)"/></g></g><g transform="translate(1067 618)"><g transform="translate(0.958 21.948)"><path class="c" d="M1094.979,679.824a19.916,19.916,0,0,0-5.387-3.033,21.364,21.364,0,0,0-6.106-1.277,26.156,26.156,0,0,0-6.345.439,27.233,27.233,0,0,0-3.113.758,22.1,22.1,0,0,0-2.993,1.117l.4-1.157a19.166,19.166,0,0,0,.878,1.836q.479.9,1.077,1.8a25.266,25.266,0,0,0,2.554,3.312,20.491,20.491,0,0,0,6.7,4.948,18.214,18.214,0,0,0,8.26,1.477,27.49,27.49,0,0,0,8.34-1.875,27.443,27.443,0,0,1-8.3,2.354,18.969,18.969,0,0,1-8.66-1.077,21,21,0,0,1-7.343-4.828,29.328,29.328,0,0,1-2.873-3.392c-.439-.6-.838-1.2-1.237-1.836a15.864,15.864,0,0,1-1.078-2l-.359-.758.758-.4c.559-.279,1.037-.519,1.6-.758.519-.239,1.077-.439,1.6-.638a31.643,31.643,0,0,1,3.312-1,30.551,30.551,0,0,1,6.9-.838,22.736,22.736,0,0,1,6.944,1.078,22.051,22.051,0,0,1,6.345,3.192Z" transform="translate(-1069.4 -673)"/></g><g transform="translate(15.164 10.256)"><path class="d" d="M1117.57,649.127l-2.873-.958c-.958-.319-1.875-.6-2.833-.838-.958-.279-1.875-.519-2.833-.718-.479-.12-.958-.2-1.4-.279-.479-.08-.958-.2-1.357-.24l1.277-.8c0-.04,0-.04.04-.08v-.04h0v.12l-.04.2v-.16h0v.2c-.16.878-.239,1.836-.319,2.753s-.12,1.876-.16,2.833,0,1.875,0,2.873c.04.958.12,1.915.16,2.953a12.986,12.986,0,0,1-1.277-2.714,18.738,18.738,0,0,1-.719-2.953,19.064,19.064,0,0,1-.239-3.033,20.22,20.22,0,0,1,.2-3.073v.2h0v-.16l.04-.2v-.239c0-.04.04-.08.04-.12l.279-.958.958.12a16.144,16.144,0,0,1,1.6.319,10.859,10.859,0,0,1,1.516.439,21.477,21.477,0,0,1,5.547,2.714A8.72,8.72,0,0,1,1117.57,649.127Z" transform="translate(-1105 -643.7)"/></g><g transform="translate(3.751 36.553)"><path class="e" d="M1085.458,709.6l-1.8,2.434c-.6.8-1.157,1.6-1.676,2.434-.559.8-1.078,1.636-1.556,2.474-.239.4-.479.838-.718,1.237a12.3,12.3,0,0,0-.639,1.237l-.4-1.437c-.04,0-.04-.04-.08-.04l-.04-.04h0l.04.04.08.04.159.08-.159-.08h0l.079.04.08.04c.8.4,1.676.8,2.514,1.157.878.359,1.756.718,2.634,1,.878.319,1.8.6,2.714.878s1.876.479,2.833.758a15,15,0,0,1-2.993.4,19.371,19.371,0,0,1-3.033-.2,24.388,24.388,0,0,1-2.953-.678,19.191,19.191,0,0,1-2.833-1.157l.16.08h0l-.08-.04-.08-.04-.2-.12-.08-.04-.04-.04-.08-.04c-.04-.04-.08-.04-.12-.08l-.8-.559.439-.878c.279-.559.519-.958.8-1.437.279-.439.559-.878.878-1.317a22.639,22.639,0,0,1,2-2.394,19.079,19.079,0,0,1,2.314-2.075A15.185,15.185,0,0,1,1085.458,709.6Z" transform="translate(-1076.4 -709.6)"/></g><g transform="translate(28.053 57.025)"><path class="f" d="M1137.3,761.06l1.756,2.474c.6.8,1.157,1.6,1.8,2.354.6.758,1.237,1.516,1.875,2.235l.958,1.077c.319.359.678.718.958,1l-1.517-.08c-.04,0-.04.04-.08.04l-.04.04h0l.04-.04.08-.08.16-.12-.12.12h0l.08-.08.08-.08c.639-.638,1.277-1.317,1.876-2.035s1.2-1.437,1.756-2.195,1.117-1.516,1.676-2.315,1.037-1.636,1.6-2.474a14.833,14.833,0,0,1-.559,2.953,16.98,16.98,0,0,1-1.117,2.793A21.222,21.222,0,0,1,1147,769.24a21.826,21.826,0,0,1-1.955,2.354l.12-.16h0l-.04.08-.08.08-.16.16-.08.08-.04.04-.08.08c-.04.04-.08.08-.12.08l-.8.6-.718-.678c-.439-.439-.758-.8-1.117-1.2a14.614,14.614,0,0,1-.958-1.237,29.476,29.476,0,0,1-1.676-2.634,19.648,19.648,0,0,1-1.237-2.833A14.944,14.944,0,0,1,1137.3,761.06Z" transform="translate(-1137.3 -760.9)"/></g><g transform="translate(52.396 36.793)"><path class="g" d="M1198.3,722.451l2.913-.878c.958-.319,1.875-.638,2.793-.958s1.836-.678,2.714-1.077l1.317-.6c.439-.2.878-.4,1.237-.6l-.559,1.4c0,.04,0,.04.04.08v.04h0l-.04-.04-.04-.08-.08-.16.08.16h0l-.08-.08-.04-.08c-.4-.8-.878-1.636-1.357-2.434s-1-1.6-1.557-2.354c-.519-.758-1.117-1.556-1.676-2.315-.6-.758-1.237-1.476-1.876-2.275a14.1,14.1,0,0,1,2.634,1.437,18.169,18.169,0,0,1,2.314,1.955,18.472,18.472,0,0,1,2,2.315,21.827,21.827,0,0,1,1.636,2.594l-.08-.16h0l.04.08.04.08.08.2.04.08.04.04.04.08c0,.04.04.08.04.12l.319.918-.878.479a15.761,15.761,0,0,1-1.476.678c-.479.2-.958.4-1.476.559a19.835,19.835,0,0,1-3.033.758,26.756,26.756,0,0,1-3.073.319A15.778,15.778,0,0,1,1198.3,722.451Z" transform="translate(-1198.3 -710.2)"/></g><g transform="translate(41.701 10.375)"><path class="h" d="M1182,657.049l.04-3.033c0-1,0-1.955-.04-2.953-.04-.958-.12-1.955-.2-2.913-.04-.479-.08-.958-.16-1.437a12.224,12.224,0,0,0-.2-1.357l1.157.958h0l-.2.04.16-.04h0l-.08.04h-.08a23.446,23.446,0,0,0-2.714.559c-.918.24-1.836.439-2.714.718-.918.279-1.8.559-2.714.918-.918.319-1.8.718-2.753,1.077a15.505,15.505,0,0,1,2.195-2.075,17.057,17.057,0,0,1,2.554-1.6,15.3,15.3,0,0,1,2.793-1.157,23.446,23.446,0,0,1,2.993-.758l-.2.04h0l.08-.04h.08l.2-.04h1.4l.16.958a12.136,12.136,0,0,1,.2,1.636c.04.519.08,1.038.08,1.556a20.38,20.38,0,0,1-.2,3.113,19.6,19.6,0,0,1-.678,3.033A17.67,17.67,0,0,1,1182,657.049Z" transform="translate(-1171.5 -644)"/></g><g transform="translate(38.549 21.945)"><path class="i" d="M1165.994,677.265a24.288,24.288,0,0,1,6.345-3.193,23.122,23.122,0,0,1,6.943-1.077,26.6,26.6,0,0,1,6.9.838,31.641,31.641,0,0,1,3.312,1c.559.2,1.078.4,1.6.638s1.038.439,1.6.758l.758.4-.359.758a15.866,15.866,0,0,1-1.077,2c-.4.638-.8,1.237-1.237,1.836a33.113,33.113,0,0,1-2.873,3.392,21.366,21.366,0,0,1-7.343,4.829,18.836,18.836,0,0,1-8.659,1.077,26.8,26.8,0,0,1-8.3-2.354,26.353,26.353,0,0,0,8.34,1.876,18.212,18.212,0,0,0,8.26-1.477,19.942,19.942,0,0,0,6.7-4.948,25.266,25.266,0,0,0,2.554-3.312l1.077-1.8a19.137,19.137,0,0,0,.878-1.836l.4,1.157a22.106,22.106,0,0,0-2.993-1.117,29.423,29.423,0,0,0-3.113-.758,26.151,26.151,0,0,0-6.345-.439,20.81,20.81,0,0,0-6.106,1.277,21.051,21.051,0,0,0-5.387,3.033Z" transform="translate(-1163.6 -672.992)"/></g><g transform="translate(26.098 0.638)"><path class="j" d="M1140.5,655.275a21.441,21.441,0,0,1-3.193-3.392,25.836,25.836,0,0,1-2.514-3.99,21.855,21.855,0,0,1-2.394-9.3v-1.237l.08-1.237c.04-.4.12-.8.16-1.237a6.361,6.361,0,0,1,.24-1.2c.16-.8.4-1.6.638-2.394.12-.4.279-.758.439-1.157l.24-.559c.08-.2.16-.359.239-.559l.519-1.117.6-1.077c.4-.718.838-1.4,1.277-2.075a9.063,9.063,0,0,1,.718-1l.718-.958c.519-.638,1.038-1.237,1.556-1.836l1.157-1.357,1.157,1.357c.519.6,1.077,1.2,1.556,1.836l.718.958c.239.319.479.639.718,1a22.246,22.246,0,0,1,1.277,2.075l.6,1.077.519,1.117c.08.2.16.359.239.559l.24.559c.16.4.319.758.439,1.157a23.356,23.356,0,0,1,.638,2.394l.24,1.2c.04.4.12.8.16,1.237l.08,1.237v1.237a19.625,19.625,0,0,1-.718,4.828,24.093,24.093,0,0,1-1.716,4.469,25.829,25.829,0,0,1-2.514,3.99,21.682,21.682,0,0,1-3.232,3.392,16.241,16.241,0,0,0,1.317-1.915c.4-.639.8-1.317,1.157-2a27.371,27.371,0,0,0,1.836-4.15,22.492,22.492,0,0,0,1.357-8.66,19.431,19.431,0,0,0-.678-4.27,17.353,17.353,0,0,0-.678-2.035c-.12-.319-.279-.678-.439-1l-.2-.479-.24-.479-.479-.958c-.16-.319-.359-.638-.559-.958-.359-.639-.8-1.237-1.2-1.836s-.878-1.157-1.317-1.756l-1.437-1.676h2.354a30.437,30.437,0,0,0-5.028,7.143l-.239.479-.2.479a10.852,10.852,0,0,1-.439,1c-.239.678-.479,1.357-.678,2.035a19.446,19.446,0,0,0-.678,4.27,21.654,21.654,0,0,0,1.357,8.66,27.383,27.383,0,0,0,1.836,4.15c.359.678.758,1.317,1.157,2A11.451,11.451,0,0,0,1140.5,655.275Z" transform="translate(-1132.4 -619.6)"/></g><g transform="translate(13.112 38.509)"><path class="k" d="M1111.168,716.1a26.4,26.4,0,0,0-4.39,4.829,23.852,23.852,0,0,0-1.636,2.753,26.349,26.349,0,0,0-1.2,2.913,23.219,23.219,0,0,0-1.157,6.145,20.258,20.258,0,0,0,0,3.113q.06.778.12,1.556c.04.24.08.519.12.758s.08.519.12.718l-1.6-1.2a9.581,9.581,0,0,0,.958-.16c.319-.08.678-.12,1-.2.678-.16,1.317-.359,2-.559a31.877,31.877,0,0,0,3.831-1.516,21.289,21.289,0,0,0,6.624-4.829,15.921,15.921,0,0,0,2.434-3.392,19.778,19.778,0,0,0,1.636-3.911,32.624,32.624,0,0,0,1.277-8.62,26.658,26.658,0,0,1-.08,8.9,21.75,21.75,0,0,1-3.472,8.46,19.771,19.771,0,0,1-7.023,6.185,21.585,21.585,0,0,1-4.35,1.756c-.758.2-1.516.4-2.275.559a11.672,11.672,0,0,1-1.157.2c-.4.04-.759.12-1.237.16l-1.357.12-.239-1.277c-.08-.359-.08-.638-.12-.918a6.524,6.524,0,0,1-.08-.878,12.916,12.916,0,0,1-.04-1.756,25.39,25.39,0,0,1,.239-3.472,23.759,23.759,0,0,1,1.875-6.624,21.061,21.061,0,0,1,9.178-9.817Z" transform="translate(-1099.859 -714.5)"/></g><circle class="l" cx="4.709" cy="4.709" r="4.709" transform="translate(29.969 31.685)"/><circle class="m" cx="2.035" cy="2.035" r="2.035" transform="translate(25.539 12.53)"/><circle class="n" cx="2.035" cy="2.035" r="2.035" transform="translate(14.047 20.831)"/><circle class="o" cx="2.035" cy="2.035" r="2.035" transform="translate(9.657 34.319)"/><circle class="p" cx="2.035" cy="2.035" r="2.035" transform="translate(14.047 47.807)"/><circle class="q" cx="2.035" cy="2.035" r="2.035" transform="translate(25.499 56.147)"/><circle class="r" cx="2.035" cy="2.035" r="2.035" transform="translate(39.666 56.187)"/><circle class="s" cx="2.035" cy="2.035" r="2.035" transform="translate(51.159 47.846)"/><circle class="t" cx="2.035" cy="2.035" r="2.035" transform="translate(55.548 34.358)"/><circle class="u" cx="2.035" cy="2.035" r="2.035" transform="translate(51.159 20.87)"/><circle class="v" cx="2.035" cy="2.035" r="2.035" transform="translate(39.706 12.53)"/><circle class="w" cx="2.873" cy="2.873" r="2.873" transform="translate(24.781 23.943)"/><circle class="x" cx="2.873" cy="2.873" r="2.873" transform="translate(20.431 37.232)"/><circle class="y" cx="2.873" cy="2.873" r="2.873" transform="translate(31.725 45.492)"/><circle class="z" cx="2.873" cy="2.873" r="2.873" transform="translate(43.098 37.311)"/><circle class="aa" cx="2.873" cy="2.873" r="2.873" transform="translate(38.788 23.983)"/><circle class="ab" cx="0.958" cy="0.958" r="0.958" transform="translate(14.964 9.657)"/><circle class="ac" cx="0.958" cy="0.958" r="0.958" transform="translate(3.392 45.253)"/><circle class="ad" cx="0.958" cy="0.958" r="0.958" transform="translate(33.64 67.28)"/><circle class="ae" cx="0.958" cy="0.958" r="0.958" transform="translate(63.968 45.292)"/><circle class="af" cx="0.958" cy="0.958" r="0.958" transform="translate(52.436 9.657)"/><circle class="ag" cx="0.958" cy="0.958" r="0.958" transform="translate(33.68)"/><circle class="ah" cx="0.958" cy="0.958" r="0.958" transform="translate(0 24.462)"/><circle class="ai" cx="0.958" cy="0.958" r="0.958" transform="translate(12.849 64.088)"/><circle class="aj" cx="0.958" cy="0.958" r="0.958" transform="translate(54.511 64.088)"/><circle class="ak" cx="0.958" cy="0.958" r="0.958" transform="translate(67.36 24.462)"/></g></g></svg>