<svg xmlns="http://www.w3.org/2000/svg" width="30" height="24" viewBox="0 0 30 24"><defs><style>.a{fill:#10a5f5;}</style></defs><g transform="translate(0 -10)"><g transform="translate(0 10)"><path class="a" d="M15,19a4.5,4.5,0,1,0,4.5,4.5A4.5,4.5,0,0,0,15,19Zm12-4.5H23.4a1.336,1.336,0,0,1-1.185-.854l-.931-2.793A1.337,1.337,0,0,0,20.1,10H9.9a1.336,1.336,0,0,0-1.185.854l-.931,2.793A1.337,1.337,0,0,1,6.6,14.5H3a3.009,3.009,0,0,0-3,3V31a3.009,3.009,0,0,0,3,3H27a3.009,3.009,0,0,0,3-3V17.5A3.009,3.009,0,0,0,27,14.5ZM15,31a7.5,7.5,0,1,1,7.5-7.5A7.5,7.5,0,0,1,15,31ZM25.95,19.6A1.05,1.05,0,1,1,27,18.548,1.05,1.05,0,0,1,25.95,19.6Z" transform="translate(0 -10)"/></g></g></svg>