<svg xmlns="http://www.w3.org/2000/svg" width="24" height="24" viewBox="0 0 24 24"><defs><style>.a{fill:#afafaf;}</style></defs><path class="a" d="M22.461,14.371a.937.937,0,1,0-1.738.7l1.1,2.731-3.279-1.445a.937.937,0,0,0-.746,0,9.042,9.042,0,0,1-3.568.721c-5.019,0-8.391-3.93-8.391-7.6,0-4.191,3.764-7.6,8.391-7.6s8.391,3.409,8.391,7.6a7.632,7.632,0,0,1-.083,1.074.938.938,0,1,0,1.854.277,9.469,9.469,0,0,0,.1-1.351,9.061,9.061,0,0,0-3.037-6.729A10.654,10.654,0,0,0,14.233,0,10.654,10.654,0,0,0,7,2.747,9.112,9.112,0,0,0,4,8.668,7.579,7.579,0,0,0,.5,14.978a7.273,7.273,0,0,0,1.438,4.346L.567,22.711A.937.937,0,0,0,1.814,23.92l3.948-1.74a8.923,8.923,0,0,0,3.127.557c.023,0,.047,0,.069,0a8.874,8.874,0,0,0,4.411-1.2,8.07,8.07,0,0,0,2.836-2.762,10.8,10.8,0,0,0,1.948-.541l5.03,2.217a.937.937,0,0,0,1.247-1.209ZM8.889,20.859l-.038,0a7.03,7.03,0,0,1-2.739-.56.938.938,0,0,0-.746,0l-2.2.968.708-1.752a.938.938,0,0,0-.156-.96,5.472,5.472,0,0,1-1.349-3.584,5.577,5.577,0,0,1,1.733-3.994A9.464,9.464,0,0,0,6.88,16.052a10.48,10.48,0,0,0,6.82,2.886A6.891,6.891,0,0,1,8.889,20.859Zm6.7-10.5a.938.938,0,1,1,0,1.875H9.968a.938.938,0,0,1,0-1.875Zm2.813-1.875H9.968a.938.938,0,0,1,0-1.875h8.438a.938.938,0,0,1,0,1.875Zm0,0" transform="translate(-0.499)"/></svg>