<svg width="54" height="53" viewBox="0 0 54 53" fill="none" xmlns="http://www.w3.org/2000/svg">
<path d="M12.662 50.7594L27 40.8664L41.338 50.7604L42.4437 51.5234L42.1059 50.2232L37.5781 32.7921L50.9083 21.5542L51.8788 20.736L50.611 20.6725L33.5657 19.8192L27.4705 2.87664L27 1.56887L26.5295 2.87664L20.4343 19.8192L3.38903 20.6715L2.12113 20.7349L3.09172 21.5532L16.4219 32.7911L11.8941 50.2222L11.5564 51.5223L12.662 50.7594ZM34.2781 32.0206L37.5133 44.4764L27.284 37.4174L27 37.2214L26.716 37.4174L16.4867 44.4764L19.7219 32.0206L19.8011 31.7157L19.5603 31.5126L9.87887 23.3509L22.247 22.7323L22.5797 22.7156L22.6925 22.4022L27 10.4307L31.3075 22.4022L31.4203 22.7156L31.753 22.7323L44.1211 23.3509L34.4397 31.5126L34.1989 31.7157L34.2781 32.0206Z" fill="#C6C6C7" stroke="#C6C6C7"/>
</svg>
