<svg xmlns="http://www.w3.org/2000/svg" width="40" height="40" viewBox="0 0 40 40"><defs><style>.a{fill:#fff;stroke:#10a5f5;stroke-width:1.5px;}.b{fill:#10a5f5;}.c{stroke:none;}.d{fill:none;}</style></defs><g transform="translate(-1212 -248)"><g class="a" transform="translate(1212 248)"><circle class="c" cx="20" cy="20" r="20"/><circle class="d" cx="20" cy="20" r="19.25"/></g><g transform="translate(1224 260)"><path class="b" d="M5.845,11.609l8-8a1.333,1.333,0,0,0,0-1.885L12.512.391a1.333,1.333,0,0,0-1.885,0l-8,8a1.333,1.333,0,0,0-.251.347L1.293,12.942,5.5,11.866A1.333,1.333,0,0,0,5.845,11.609Z" transform="translate(0.431 0)"/><path class="b" d="M15.333,11H.667a.667.667,0,0,0,0,1.333H15.333a.667.667,0,1,0,0-1.333Z" transform="translate(0 3.666)"/></g></g></svg>