<svg width="40" height="40" viewBox="0 0 40 40" fill="none" xmlns="http://www.w3.org/2000/svg">
<circle cx="20" cy="20" r="20" fill="#8E949A"/>
<path d="M18.2502 23.6084L26.2502 15.6084C26.5001 15.3584 26.6405 15.0194 26.6405 14.6659C26.6405 14.3124 26.5001 13.9733 26.2502 13.7234L24.9172 12.3904C24.6672 12.1404 24.3282 12 23.9747 12C23.6212 12 23.2822 12.1404 23.0322 12.3904L15.0322 20.3904C14.9304 20.4917 14.8456 20.6089 14.7812 20.7374L13.6982 24.9414L17.9052 23.8654C18.0333 23.7989 18.1499 23.7121 18.2502 23.6084V23.6084Z" fill="white"/>
<path d="M27.3072 26.6653H12.6412C12.4689 26.672 12.3059 26.7451 12.1863 26.8694C12.0668 26.9936 12 27.1594 12 27.3318C12 27.5042 12.0668 27.67 12.1863 27.7942C12.3059 27.9185 12.4689 27.9916 12.6412 27.9983H27.3072C27.3969 28.0018 27.4864 27.9871 27.5702 27.9552C27.6541 27.9232 27.7307 27.8747 27.7954 27.8125C27.8601 27.7502 27.9116 27.6756 27.9467 27.593C27.9819 27.5104 28 27.4216 28 27.3318C28 27.242 27.9819 27.1532 27.9467 27.0706C27.9116 26.988 27.8601 26.9133 27.7954 26.8511C27.7307 26.7889 27.6541 26.7403 27.5702 26.7084C27.4864 26.6765 27.3969 26.6618 27.3072 26.6653V26.6653Z" fill="white"/>
</svg>
