<svg xmlns="http://www.w3.org/2000/svg" width="22" height="20" viewBox="0 0 22 20"><defs><style>.a{fill:none;stroke-linecap:round;stroke-linejoin:round;}.b,.c{stroke:none;}.c{fill:#afafaf;}</style></defs><g transform="translate(-2 -4)"><g class="a"><path class="b" d="M21.4,18.8A8.017,8.017,0,0,0,24,13c0-4.95-4.9-9-11-9S2,8.05,2,13s4.9,9,11,9a15.913,15.913,0,0,0,3.1-.35L22,24Z"/><path class="c" d="M 20.2220344543457 21.67721748352051 L 19.90988731384277 18.97193908691406 C 19.85646629333496 18.50900840759277 20.02123641967773 18.04754829406738 20.35577774047852 17.72314834594727 C 21.75853729248047 16.36289978027344 22.49999618530273 14.72965908050537 22.49999618530273 12.99999904632568 C 22.49999618530273 11.05885887145996 21.55385780334473 9.213278770446777 19.83585739135742 7.803218841552734 C 18.02623748779297 6.317968845367432 15.59854698181152 5.499999046325684 12.99999713897705 5.499999046325684 C 10.40144729614258 5.499999046325684 7.973757266998291 6.317968845367432 6.164137363433838 7.803218841552734 C 4.446136951446533 9.213278770446777 3.499997138977051 11.05885887145996 3.499997138977051 12.99999904632568 C 3.499997138977051 14.94113922119141 4.446136951446533 16.78671836853027 6.164137363433838 18.19677925109863 C 7.973757266998291 19.68202972412109 10.40144729614258 20.5 12.99999713897705 20.5 C 13.81968688964844 20.5 14.71126747131348 20.39803886413574 15.80582714080811 20.17912864685059 C 15.903151512146 20.15966415405273 16.00165939331055 20.14999961853027 16.0999870300293 20.14999961853027 C 16.2891845703125 20.14999961853027 16.47762489318848 20.18580436706543 16.6550464630127 20.2564697265625 L 20.2220344543457 21.67721748352051 M 21.99999618530273 24 L 16.09999656677246 21.64999961853027 C 15.09999752044678 21.84999847412109 14.04999732971191 22 12.99999713897705 22 C 6.899997234344482 22 1.999997138977051 17.94999885559082 1.999997138977051 12.99999904632568 C 1.999997138977051 8.049999237060547 6.899997234344482 3.999999046325684 12.99999713897705 3.999999046325684 C 19.09999656677246 3.999999046325684 23.99999618530273 8.049999237060547 23.99999618530273 12.99999904632568 C 23.99999618530273 15.19999885559082 23.04999732971191 17.19999885559082 21.39999771118164 18.79999923706055 L 21.99999618530273 24 Z"/></g></g></svg>