<svg xmlns="http://www.w3.org/2000/svg" width="58" height="58" viewBox="0 0 58 58"><defs><style>.a{fill:#56e3c8;}.b{fill:#fff;}</style></defs><path class="a" d="M58,29A29,29,0,1,1,29,0,29,29,0,0,1,58,29Zm0,0"/><g transform="translate(9.967 8.608)"><path class="b" d="M106.643,96.415c.124,0,.249.008.373.008s.233,0,.349-.007a15.949,15.949,0,0,1,7.39,2,1.7,1.7,0,1,0,1.653-2.969,19.137,19.137,0,0,0-2.938-1.322,10.219,10.219,0,1,0-12.906,0,19.334,19.334,0,0,0-12.482,14.269,4.693,4.693,0,0,0,4.588,5.659h11.481a1.7,1.7,0,0,0,0-3.4H92.671a1.265,1.265,0,0,1-1-.474,1.291,1.291,0,0,1-.265-1.094A16,16,0,0,1,106.643,96.415ZM100.2,86.2a6.821,6.821,0,1,1,7.115,6.813c-.1,0-.2,0-.295,0s-.223,0-.335,0A6.829,6.829,0,0,1,100.2,86.2Zm0,0" transform="translate(-87.983 -75.984)"/><path class="b" d="M276.1,269.794l-2.728-2.7a1.7,1.7,0,1,0-2.39,2.417l1.3,1.281h-7.63a6.142,6.142,0,0,0-.036,12.284,1.7,1.7,0,0,0,0-3.4,2.744,2.744,0,0,1,.036-5.487h7.767l-1.435,1.428a1.7,1.7,0,0,0,2.4,2.409l2.732-2.717a3.882,3.882,0,0,0-.008-5.518Zm0,0" transform="translate(-239.191 -245.011)"/></g></svg>