<svg xmlns="http://www.w3.org/2000/svg" width="58" height="58" viewBox="0 0 58 58"><defs><style>.a{fill:#10a5f5;}</style></defs><path class="a" d="M29,0A29,29,0,1,0,58,29,29,29,0,0,0,29,0Zm8.33,40.433a9.328,9.328,0,0,1-4.833,3.1,1.345,1.345,0,0,0-1.17,1.54c.036.859,0,1.707-.012,2.566a1.063,1.063,0,0,1-1.146,1.193c-.489.012-.979.024-1.468.024-.43,0-.859,0-1.289-.012a1.109,1.109,0,0,1-1.193-1.265c-.012-.621-.012-1.253-.012-1.874-.012-1.384-.06-1.432-1.384-1.647a17.59,17.59,0,0,1-4.917-1.408c-1.217-.6-1.349-.9-1-2.184.263-.955.525-1.909.823-2.852.215-.692.418-1,.788-1a2.092,2.092,0,0,1,.859.3,15.922,15.922,0,0,0,5.466,1.635,8.756,8.756,0,0,0,.967.06,6.449,6.449,0,0,0,2.614-.537,2.78,2.78,0,0,0,.668-4.881A8.714,8.714,0,0,0,29.048,32a47.776,47.776,0,0,1-5.585-2.506C20.6,27.771,18.784,25.42,19,21.935c.239-3.938,2.47-6.4,6.086-7.709,1.492-.537,1.5-.525,1.5-2.077,0-.525-.012-1.05.012-1.587.036-1.17.227-1.372,1.4-1.408h1.36c2.22,0,2.22.1,2.232,2.494.012,1.766.012,1.766,1.766,2.041a15.54,15.54,0,0,1,3.867,1.158,1.123,1.123,0,0,1,.728,1.5c-.31,1.074-.609,2.16-.943,3.222-.215.644-.418.943-.8.943a1.917,1.917,0,0,1-.812-.251,12.2,12.2,0,0,0-5.406-1.241c-.239,0-.489.012-.728.024a4.815,4.815,0,0,0-1.635.334,2.318,2.318,0,0,0-.573,4.129A10.8,10.8,0,0,0,29.716,25a47.986,47.986,0,0,1,4.857,2.2A8.732,8.732,0,0,1,37.33,40.433Z"/></svg>