<svg xmlns="http://www.w3.org/2000/svg" width="58" height="58" viewBox="0 0 58 58"><defs><style>.a{fill:#e39578;}.b{fill:#fff;}.c{fill:none;stroke:#fff;stroke-linecap:square;stroke-miterlimit:10;stroke-width:3.5px;}</style></defs><g transform="translate(-878.333 -407)"><g transform="translate(878.333 407)"><path class="a" d="M58,29A29,29,0,1,1,29,0,29,29,0,0,1,58,29Zm0,0"/><g transform="translate(9.967 8.608)"><path class="b" d="M106.643,96.415c.124,0,.249.008.373.008s.233,0,.349-.007a15.949,15.949,0,0,1,7.39,2,1.7,1.7,0,1,0,1.653-2.969,19.137,19.137,0,0,0-2.938-1.322,10.219,10.219,0,1,0-12.906,0,19.334,19.334,0,0,0-12.482,14.269,4.693,4.693,0,0,0,4.588,5.659h11.481a1.7,1.7,0,0,0,0-3.4H92.671a1.265,1.265,0,0,1-1-.474,1.291,1.291,0,0,1-.265-1.094A16,16,0,0,1,106.643,96.415ZM100.2,86.2a6.821,6.821,0,1,1,7.115,6.813c-.1,0-.2,0-.295,0s-.223,0-.335,0A6.829,6.829,0,0,1,100.2,86.2Zm0,0" transform="translate(-87.983 -75.984)"/></g></g><g transform="translate(-16 19.655)"><line class="c" y2="10" transform="translate(931 423.345)"/><line class="c" x1="10" transform="translate(926 428.345)"/></g></g></svg>