<svg width="24" height="20" viewBox="0 0 24 20" fill="none" xmlns="http://www.w3.org/2000/svg">
<path d="M5.19999 20C4.79999 20 4.29999 19.9 3.89999 19.8C3.49999 19.7 3.29999 19.5 3.09999 19.3L2.99999 19.2C2.89999 19.1 2.79999 18.9 2.79999 18.8C2.79999 18.6 2.89999 18.5 3.09999 18.4C3.89999 18 4.59999 17.3 4.99999 16.5C4.99999 16.4 4.99999 16.3 5.09999 16.2C2.29999 14.5 0.699993 11.8 0.699993 9C0.599993 4 5.69999 0 12 0C18.3 0 23.4 4 23.4 9C23.4 14 18.3 18.1 12 18.1C11.4 18.1 10.7 18.1 10.1 18C8.59999 19.3 6.89999 20 5.19999 20ZM4.19999 18.9C5.89999 19.3 7.89999 18.6 9.69999 17.1C9.69999 17 9.89999 16.9 9.99999 17C10.6 17.1 11.3 17.1 12 17.1C17.7 17.1 22.4 13.5 22.4 9C22.4 4.5 17.7 1 12 1C6.29999 1 1.59999 4.6 1.59999 9C1.59999 11.6 3.19999 14 5.89999 15.5C6.09999 15.6 6.19999 15.9 6.09999 16.1C6.09999 16.4 5.99999 16.7 5.79999 17C5.39999 17.8 4.79999 18.4 4.19999 18.9Z" fill="white"/>
</svg>
