<svg width="214" height="192" viewBox="0 0 214 192" fill="none" xmlns="http://www.w3.org/2000/svg">
<path d="M154.037 8.58125C182.16 8.58125 205.013 31.4898 205.013 59.7789C205.013 74.3117 198.967 87.4023 189.316 96.7211L107 179.813L23.2422 95.2234C14.4781 86.0156 9.04219 73.5352 9.04219 59.7789C9.04219 31.4898 31.8398 8.58125 60.018 8.58125C81.207 8.58125 99.3453 21.5609 107.055 40.0875C114.655 21.6164 132.848 8.58125 154.037 8.58125ZM154.037 0.0390625C135.289 0.0390625 118.094 8.80313 107 23.225C95.9062 8.80313 78.7109 0.0390625 59.9625 0.0390625C27.1805 0.0390625 0.5 26.8305 0.5 59.7789C0.5 75.2547 6.37969 89.9539 17.0852 101.159L100.954 185.859L107 191.961L113.046 185.859L195.306 102.767C206.955 91.507 213.5 76.1977 213.5 59.7789C213.5 26.8305 186.82 0.0390625 154.037 0.0390625Z" fill="white"/>
</svg>
